<?xml version="1.0" standalone="no"?>
<!DOCTYPE svg PUBLIC "-//W3C//DTD SVG 20010904//EN"
 "http://www.w3.org/TR/2001/REC-SVG-20010904/DTD/svg10.dtd">
<svg version="1.0" xmlns="http://www.w3.org/2000/svg"
 width="1024.000000pt" height="1024.000000pt" viewBox="0 0 1024.000000 1024.000000"
 preserveAspectRatio="xMidYMid meet">

<g transform="translate(0.000000,1024.000000) scale(0.100000,-0.100000)"
fill="#000000" stroke="none">
<path d="M0 5120 l0 -5120 5120 0 5120 0 0 5120 0 5120 -5120 0 -5120 0 0
-5120z m5263 3686 c28 -14 153 -96 277 -182 124 -86 338 -233 475 -326 138
-94 264 -182 280 -198 17 -15 47 -34 68 -41 84 -30 137 -100 137 -183 0 -64
-36 -102 -153 -159 -55 -26 -116 -66 -148 -95 -30 -27 -85 -68 -124 -92 -38
-23 -178 -115 -310 -203 -600 -402 -562 -381 -675 -381 -54 -1 -86 5 -115 18
-22 11 -251 162 -510 336 -258 174 -492 332 -520 350 -134 89 -217 154 -230
180 -20 38 -19 94 2 137 18 39 86 88 137 98 17 4 49 24 71 45 22 21 207 150
410 286 204 136 404 270 445 298 193 133 230 148 348 142 63 -3 94 -10 135
-30z m725 6 c48 -31 65 -98 37 -152 -22 -43 -53 -60 -108 -60 -42 0 -54 5 -83
34 -101 101 33 257 154 178z m-1652 2 c60 -40 73 -132 26 -182 -92 -98 -253 5
-202 129 26 61 120 89 176 53z m-435 -109 c63 -33 88 -118 48 -169 -44 -56
-110 -70 -167 -36 -131 80 -17 275 119 205z m2509 0 c61 -32 79 -121 35 -174
-53 -62 -137 -62 -191 2 -23 27 -26 38 -21 81 3 40 11 55 36 78 36 32 93 38
141 13z m-3014 -56 c32 -30 54 -71 54 -102 0 -29 21 -49 125 -117 108 -71 135
-98 135 -132 0 -61 -63 -107 -126 -92 -16 4 -81 41 -145 83 -64 42 -139 88
-168 104 -54 29 -87 71 -97 123 -8 45 26 118 68 144 44 28 118 23 154 -11z
m3569 11 c37 -23 65 -74 65 -118 0 -70 -43 -127 -125 -169 -27 -14 -92 -55
-144 -91 -76 -53 -103 -66 -142 -70 -41 -4 -51 -1 -73 21 -31 31 -36 96 -10
122 10 9 61 45 115 80 99 64 99 65 99 105 0 49 20 90 56 119 36 28 114 29 159
1z m-4181 -80 c33 -12 66 -66 66 -107 0 -22 -10 -43 -29 -65 -25 -28 -36 -33
-76 -33 -40 0 -51 5 -76 33 -23 25 -29 42 -29 76 0 38 5 48 35 75 37 32 66 38
109 21z m4732 -24 c44 -44 47 -99 9 -144 -63 -75 -195 -30 -195 67 0 67 45
110 114 111 30 0 45 -7 72 -34z m-5290 -212 c60 -43 195 -135 299 -207 232
-158 265 -188 265 -237 0 -63 -58 -103 -119 -82 -16 6 -87 50 -158 99 -70 49
-206 142 -301 207 -95 65 -181 130 -192 144 -30 37 -26 87 9 123 46 46 73 40
197 -47z m5904 61 c61 -31 77 -90 37 -137 -22 -26 -558 -388 -627 -423 -97
-50 -183 22 -135 114 9 19 80 73 202 154 103 69 248 167 321 216 73 50 141 91
153 91 11 0 33 -7 49 -15z m-5110 -209 c28 -35 -11 -93 -47 -70 -25 16 -28 42
-7 65 20 23 37 24 54 5z m4208 2 c28 -28 3 -84 -34 -76 -28 5 -40 33 -26 62
12 28 40 34 60 14z m-5440 -94 c30 -35 30 -87 -3 -119 -27 -28 -63 -32 -104
-10 -32 16 -41 33 -41 75 0 43 10 61 44 76 40 17 75 10 104 -22z m6737 1 c55
-54 16 -145 -60 -145 -42 0 -95 44 -95 80 0 26 25 77 42 83 36 15 90 6 113
-18z m-1612 -69 c18 -7 45 -28 60 -45 27 -32 27 -34 27 -180 l0 -148 143 -94
c123 -82 538 -360 889 -597 125 -85 163 -126 179 -198 10 -43 9 -59 -5 -102
-20 -59 -86 -127 -165 -166 l-51 -26 1 -628 c1 -345 4 -669 8 -721 l6 -95 57
-33 c68 -39 134 -112 148 -162 35 -126 -17 -229 -157 -308 l-63 -35 0 -242 c0
-134 3 -264 6 -289 6 -44 10 -49 69 -85 127 -80 145 -128 145 -381 0 -207 -7
-237 -68 -297 -18 -16 -291 -203 -607 -415 -440 -294 -575 -389 -575 -404 0
-52 -61 -106 -137 -121 -41 -8 -114 28 -138 68 -55 94 13 218 121 218 35 0 64
16 222 123 100 67 319 214 487 327 l304 205 1 129 0 129 -22 -20 c-13 -12
-180 -128 -373 -259 -543 -369 -565 -384 -581 -384 -28 0 -74 56 -74 91 0 58
33 92 208 212 305 209 656 448 749 510 l93 62 0 339 0 338 -25 -16 c-14 -9
-36 -23 -50 -32 -14 -9 -31 -14 -38 -11 -13 5 -57 130 -57 165 0 15 24 39 85
83 l85 61 0 409 c0 225 -3 409 -6 409 -3 0 -127 -81 -275 -180 -148 -99 -274
-180 -279 -180 -6 0 -10 42 -10 100 l0 100 285 190 285 190 0 371 0 371 -28
-19 c-283 -189 -532 -353 -536 -353 -3 0 -6 45 -6 100 l0 100 58 41 c31 22
159 108 285 190 l227 148 0 150 0 149 -32 24 c-18 13 -68 41 -110 63 -43 21
-78 43 -78 47 0 4 -7 8 -15 8 -7 0 -18 7 -23 16 -5 9 -12 16 -15 15 -22 -2
-322 195 -361 237 -17 17 -34 28 -39 25 -6 -3 -7 -2 -4 4 4 6 -15 24 -41 41
-26 17 -108 75 -182 129 l-135 99 -3 49 c-5 78 5 112 33 119 36 9 31 24 -25
76 -40 37 -50 53 -50 79 0 47 25 88 68 110 45 24 62 25 105 7z m-4979 -266
c35 -13 66 -66 66 -112 0 -28 -8 -47 -29 -70 -27 -30 -35 -33 -86 -33 -51 0
-59 3 -86 33 -48 53 -36 146 22 178 29 16 78 18 113 4z m1447 -9 c29 -15 39
-44 39 -120 l0 -46 -80 -55 c-43 -30 -131 -86 -194 -125 -63 -38 -156 -103
-208 -143 -51 -40 -156 -113 -233 -162 -77 -48 -184 -116 -237 -150 l-98 -62
0 -142 c0 -131 1 -142 20 -151 11 -6 85 -55 165 -109 l145 -99 0 -110 c0 -91
-2 -108 -14 -104 -12 5 -153 103 -297 206 -19 13 -19 6 -19 -327 l0 -341 24
-13 c13 -7 87 -58 165 -113 l141 -100 0 -103 c0 -80 -3 -102 -12 -96 -28 16
-207 140 -260 181 l-58 44 0 -458 c0 -252 -4 -464 -9 -472 -7 -10 -17 -6 -47
21 -22 20 -45 33 -53 30 -8 -2 -11 0 -8 5 3 5 2 15 -2 22 -5 8 -22 -9 -51 -53
-24 -36 -47 -66 -51 -66 -4 0 -41 33 -82 73 -61 59 -76 80 -86 120 -27 112 37
227 166 296 l48 26 3 730 2 730 -51 24 c-100 45 -168 131 -169 211 0 21 12 56
31 88 28 49 47 64 252 198 851 558 1007 662 1041 697 10 9 24 17 32 17 9 0 12
5 8 11 -7 12 -6 12 37 -10z m4993 -12 c82 -71 40 -199 -66 -199 -54 0 -92 22
-113 66 -14 31 -15 43 -6 75 26 87 119 117 185 58z m-443 -105 c27 -24 49 -67
49 -94 0 -36 -31 -90 -61 -105 -15 -8 -48 -15 -73 -15 -39 0 -51 5 -81 35 -30
31 -35 42 -35 84 0 55 25 96 73 116 36 15 100 5 128 -21z m-5536 6 c42 -26 70
-87 61 -134 -7 -36 -57 -88 -96 -101 -60 -19 -141 29 -161 94 -10 32 -8 45 8
83 33 73 120 100 188 58z m4182 -186 c39 -29 73 -91 73 -132 0 -15 6 -35 13
-44 6 -8 83 -64 170 -123 195 -134 238 -183 222 -256 -9 -38 -56 -62 -93 -48
-14 5 -77 47 -141 93 -277 198 -247 181 -332 181 -66 0 -81 3 -116 28 -54 38
-83 92 -83 157 0 152 167 235 287 144z m-2888 -114 c79 -38 631 -410 687 -465
61 -58 70 -119 24 -165 -30 -30 -60 -25 -126 20 -32 23 -144 100 -249 171
-361 248 -394 269 -430 269 -27 0 -78 -29 -242 -139 -114 -76 -216 -147 -225
-157 -49 -56 -48 -23 -48 -1096 0 -955 1 -1005 19 -1044 20 -43 59 -78 184
-164 73 -51 76 -55 62 -74 -8 -12 -28 -45 -45 -73 -18 -29 -35 -53 -40 -53 -5
0 -64 37 -132 83 -142 94 -188 147 -213 241 -14 55 -16 172 -13 1116 l3 1055
23 50 c13 28 37 65 55 84 33 34 477 332 531 356 51 22 105 18 175 -15z m4871
-310 c34 -31 45 -67 36 -113 -9 -50 -46 -79 -105 -85 -47 -4 -53 -2 -86 31
-31 31 -35 41 -35 85 0 62 28 100 80 111 49 10 76 3 110 -29z m-6782 2 c75
-70 43 -186 -55 -199 -75 -10 -133 43 -133 123 0 28 8 44 34 70 29 29 41 34
79 34 36 0 51 -6 75 -28z m4317 -75 c122 -47 145 -181 45 -259 l-30 -24 2
-177 3 -178 243 166 c134 91 246 165 249 165 17 0 143 -88 143 -100 0 -8 -28
-34 -63 -57 -119 -81 -323 -219 -436 -296 -94 -63 -121 -77 -153 -77 l-39 0 3
275 3 274 -41 16 c-62 23 -96 65 -102 123 -5 57 13 100 55 130 45 32 73 36
118 19z m-2570 -210 c104 -69 430 -292 462 -316 20 -15 21 -24 20 -123 -1 -60
-3 -108 -4 -108 -1 0 -68 46 -150 102 -425 291 -584 402 -588 408 -7 11 147
110 159 103 6 -4 52 -33 101 -66z m3509 -162 l26 -24 0 -771 c0 -753 0 -770
-20 -790 -11 -11 -30 -22 -44 -26 -29 -7 -81 18 -96 46 -13 24 -28 1441 -16
1504 15 80 94 113 150 61z m-1204 -52 c38 -27 69 -50 70 -53 0 -11 -652 -456
-705 -481 -46 -21 -144 -25 -196 -7 -35 11 -319 199 -339 223 -9 11 -8 26 3
62 9 26 19 63 22 81 4 17 11 32 16 32 6 0 76 -44 157 -99 177 -118 182 -121
225 -121 47 0 83 21 392 228 149 100 273 182 278 182 4 0 39 -21 77 -47z
m-4070 2 c37 -19 60 -62 60 -111 0 -28 -8 -44 -34 -70 -29 -29 -41 -34 -81
-34 -40 0 -52 5 -81 34 -93 93 18 242 136 181z m6785 -5 c98 -61 55 -210 -61
-210 -39 0 -51 5 -80 34 -28 28 -34 42 -34 76 0 52 13 76 53 100 41 25 81 25
122 0z m-4137 -99 c122 -63 79 -251 -58 -251 -71 0 -140 65 -140 131 0 39 41
98 84 119 51 25 67 25 114 1z m1452 -293 c0 -13 9 -46 20 -75 l19 -52 -52 -47
c-106 -96 -485 -365 -597 -425 -38 -20 -59 -24 -140 -24 -90 0 -99 2 -159 35
-36 19 -176 111 -312 205 -135 93 -255 175 -265 182 -17 10 -16 12 16 24 19 7
64 27 99 46 l63 33 207 -142 c260 -178 279 -188 351 -188 82 0 68 -8 589 351
79 54 148 99 153 99 4 0 8 -10 8 -22z m-4081 -233 c62 -53 62 -137 0 -190 -87
-73 -219 18 -188 130 22 80 124 113 188 60z m6786 -8 c58 -58 58 -116 0 -174
-90 -90 -241 11 -195 132 19 49 58 75 112 75 43 0 55 -5 83 -33z m-2301 -18
c65 -24 126 -87 144 -147 18 -59 15 -160 -7 -207 -23 -51 -98 -118 -149 -133
-125 -38 -250 20 -308 143 -78 164 43 361 223 364 23 1 67 -8 97 -20z m-2350
-60 c85 -66 70 -201 -26 -237 -111 -42 -222 72 -172 175 38 77 139 108 198 62z
m-2146 -355 c37 -25 56 -80 43 -126 -30 -100 -170 -106 -211 -9 -23 57 1 113
65 150 24 13 70 7 103 -15z m6788 -5 c78 -73 34 -199 -70 -199 -121 0 -159
160 -52 215 39 20 91 13 122 -16z m-1899 -143 c42 -45 51 -95 28 -146 -22 -50
-40 -65 -92 -80 -37 -11 -46 -10 -85 8 -80 39 -108 133 -50 167 15 9 40 35 56
57 27 38 31 40 70 35 30 -4 50 -15 73 -41z m-2460 -359 c224 -150 498 -334
608 -408 141 -96 215 -139 250 -148 28 -7 69 -19 93 -28 41 -14 325 -195 369
-236 l22 -19 143 97 c79 53 235 159 347 236 112 76 208 139 213 139 4 0 8 -45
8 -99 l0 -99 -69 -51 c-39 -28 -161 -112 -271 -187 -111 -75 -198 -140 -193
-144 4 -4 40 -30 78 -57 67 -47 72 -49 100 -37 122 52 260 -65 226 -193 -29
-105 -133 -153 -229 -104 -44 22 -65 45 -84 87 -10 25 -82 78 -353 258 -321
215 -342 227 -390 229 -64 4 -103 24 -279 146 -78 54 -204 140 -281 191 -301
202 -811 551 -839 573 l-28 23 68 51 c38 28 72 52 76 52 3 1 190 -122 415
-272z m-2437 78 c64 -33 81 -131 32 -186 -56 -63 -158 -45 -196 36 -49 102 62
203 164 150z m6805 -18 c41 -41 51 -77 36 -128 -15 -50 -59 -79 -119 -79 -37
0 -50 6 -78 34 -30 30 -34 40 -34 86 0 46 4 56 34 86 29 29 41 34 81 34 40 0
52 -5 80 -33z m-1974 -186 l24 -19 0 -834 0 -833 -26 -56 c-38 -81 -86 -128
-207 -206 -59 -37 -262 -173 -452 -302 -497 -337 -750 -505 -800 -532 -38 -19
-60 -23 -135 -23 -120 -1 -138 8 -500 264 -44 31 -161 112 -260 180 -99 69
-245 171 -325 228 -80 58 -150 106 -156 109 -6 2 -33 -7 -60 -21 -104 -51
-226 -57 -336 -16 -60 22 -494 312 -881 587 -56 40 -104 73 -107 73 -3 0 -3
-55 0 -122 l5 -122 95 -66 c52 -37 237 -165 410 -285 173 -120 341 -238 373
-262 35 -26 68 -43 85 -43 37 0 68 -24 92 -70 50 -99 -5 -192 -115 -194 -61
-1 -111 34 -132 93 -15 44 -26 55 -127 125 -61 42 -172 119 -246 171 -74 51
-191 132 -260 179 -231 157 -455 316 -489 349 -18 18 -44 55 -57 82 -22 47
-24 61 -24 233 0 196 4 218 57 295 14 21 57 58 95 83 l68 46 0 289 0 290 83
-64 82 -65 5 -358 5 -358 100 -71 c110 -78 480 -331 761 -521 113 -76 196
-125 218 -130 59 -10 119 1 190 36 113 55 126 50 366 -119 74 -52 182 -127
240 -167 58 -39 184 -126 280 -192 96 -67 225 -155 286 -197 133 -92 164 -100
248 -62 31 14 302 192 601 394 771 520 714 479 747 542 l28 53 0 785 0 785 29
29 c35 35 86 39 122 10z m507 -90 c71 -37 122 -113 122 -183 0 -18 -11 -56
-24 -85 -33 -71 -87 -106 -170 -111 -53 -3 -68 1 -112 27 -169 99 -97 369 99
371 28 0 63 -8 85 -19z m-3278 -296 c91 -46 137 -140 128 -260 -9 -108 -79
-197 -180 -227 l-38 -11 0 -143 0 -142 33 -7 c44 -9 114 -51 132 -79 12 -18
13 -29 4 -57 -41 -122 -257 -189 -346 -107 -28 25 -53 76 -53 108 0 33 66 97
123 118 l52 20 0 147 0 148 -45 13 c-102 30 -170 129 -170 247 0 77 17 123 68
179 49 55 102 78 180 78 47 0 75 -6 112 -25z m-2054 -61 c80 -53 67 -185 -22
-214 -102 -34 -194 68 -149 164 10 20 29 43 44 51 35 19 96 19 127 -1z m6792
-9 c85 -72 52 -197 -55 -212 -77 -10 -133 43 -133 128 0 33 6 47 34 75 29 29
41 34 79 34 34 0 53 -6 75 -25z m-6817 -465 c22 -12 26 -59 7 -78 -19 -19 -55
-14 -72 9 -16 23 -12 47 12 67 19 15 28 15 53 2z m6760 -9 c20 -16 22 -23 14
-47 -17 -49 -85 -41 -85 9 0 20 26 57 40 57 4 0 18 -9 31 -19z m-6715 -335
c30 -30 34 -40 34 -84 0 -61 -27 -99 -80 -111 -65 -14 -120 15 -147 77 -30 71
30 152 114 152 38 0 50 -5 79 -34z m6752 14 c42 -26 67 -77 58 -122 -9 -51
-45 -80 -105 -86 -47 -4 -53 -2 -86 31 -27 27 -35 43 -35 71 0 99 88 155 168
106z m-2288 -137 c0 -49 -3 -97 -6 -108 -6 -22 1 -17 -414 -300 -162 -111
-359 -245 -437 -298 -189 -130 -231 -149 -333 -149 -64 0 -90 5 -132 25 -51
24 -261 167 -647 441 -101 72 -189 134 -195 138 -10 7 49 143 66 154 7 5 237
-148 588 -391 257 -179 257 -179 335 -173 71 6 49 -7 535 324 441 301 624 424
633 424 4 0 7 -39 7 -87z m-2303 5 c-3 -8 -6 -5 -6 6 -1 11 2 17 5 13 3 -3 4
-12 1 -19z m-31 -193 c-16 -27 -43 -54 -69 -69 -44 -25 -105 -47 -77 -27 13 9
13 11 -2 11 -10 0 -18 5 -18 10 0 13 23 13 37 -1 12 -12 41 -1 62 25 11 13 10
17 -3 22 -16 6 -13 24 5 24 6 0 7 -4 4 -10 -10 -17 7 -11 22 8 14 16 14 16 9
-3 l-6 -20 16 20 c9 11 21 33 27 50 6 16 12 24 15 17 2 -7 -8 -32 -22 -57z
m-82 -49 c-8 -21 -32 -27 -54 -13 -30 18 -24 27 20 27 30 0 38 -3 34 -14z
m-106 -63 c-10 -2 -26 -2 -35 0 -10 3 -2 5 17 5 19 0 27 -2 18 -5z m-1915
-344 c35 -38 35 -73 -2 -110 -77 -77 -207 20 -140 104 42 55 95 57 142 6z
m6692 6 c28 -27 32 -63 10 -104 -16 -32 -33 -41 -76 -41 -41 0 -66 15 -83 49
-17 33 -11 67 17 99 30 32 99 31 132 -3z m-6360 -139 c64 -27 92 -104 60 -166
-22 -42 -53 -60 -106 -60 -36 0 -55 6 -78 26 -70 59 -59 153 22 193 50 25 57
25 102 7z m5995 -2 c69 -28 98 -101 65 -164 -23 -44 -53 -60 -112 -60 -43 0
-58 5 -84 28 -62 55 -43 164 34 197 41 18 49 18 97 -1z m-1666 -124 c36 -28
66 -54 66 -58 0 -4 -75 -61 -167 -127 -93 -65 -222 -158 -288 -205 -66 -48
-183 -131 -260 -185 -243 -170 -477 -337 -553 -393 -104 -76 -150 -95 -242
-95 -86 0 -136 20 -232 91 -29 21 -159 113 -288 204 -384 270 -929 668 -930
679 0 6 144 99 154 99 7 0 155 -104 336 -235 241 -174 835 -593 879 -619 7 -5
30 -12 50 -17 55 -13 112 11 231 96 198 141 426 302 765 540 187 131 351 246
364 256 13 11 29 19 36 19 7 0 42 -23 79 -50z m1164 -192 c56 -40 198 -142
317 -226 235 -167 255 -188 235 -248 -7 -21 -23 -40 -40 -49 -55 -29 -81 -20
-202 67 -62 44 -196 141 -298 213 -102 73 -198 147 -214 164 -41 42 -40 85 2
123 53 46 83 40 200 -44z m-4877 33 c39 -39 40 -88 2 -126 -16 -15 -98 -75
-183 -133 -85 -58 -220 -150 -299 -204 -171 -119 -195 -126 -246 -75 -40 40
-44 68 -16 111 11 16 156 122 332 242 346 237 354 241 410 185z m-1006 -55
c59 -25 75 -97 30 -141 -65 -66 -180 10 -145 95 11 27 50 58 73 60 4 0 23 -6
42 -14z m6767 -15 c63 -56 29 -151 -54 -151 -53 0 -88 35 -88 88 0 40 12 63
45 80 33 19 63 13 97 -17z m-5492 -231 c16 -31 -4 -62 -38 -58 -19 2 -28 10
-30 26 -7 47 47 72 68 32z m4200 1 c13 -26 3 -50 -26 -57 -30 -8 -44 2 -44 30
0 44 50 63 70 27z m-3792 -121 c68 -42 92 -132 52 -197 -29 -48 -64 -67 -122
-66 -56 1 -90 20 -125 73 -78 114 75 263 195 190z m3510 0 c123 -75 78 -260
-63 -260 -75 0 -145 63 -145 131 0 59 41 124 90 142 33 12 87 6 118 -13z
m-499 -119 c38 -28 71 -89 71 -133 0 -48 -31 -100 -76 -125 -71 -41 -150 -24
-200 43 -23 30 -29 47 -29 90 0 59 20 94 76 132 42 30 111 26 158 -7z m-2559
4 c37 -19 60 -63 60 -112 -1 -135 -209 -140 -227 -5 -13 97 80 162 167 117z
m459 -261 c17 -14 36 -43 42 -64 25 -83 -58 -166 -141 -141 -51 15 -90 62 -90
108 0 101 115 160 189 97z m1538 -7 c32 -30 36 -39 35 -81 0 -58 -35 -101 -87
-110 -73 -14 -135 39 -135 115 0 33 6 47 34 75 48 48 101 48 153 1z"/>
<path d="M6780 2530 c0 -13 20 -13 40 0 12 8 9 10 -12 10 -16 0 -28 -4 -28
-10z"/>
<path d="M6850 2530 c8 -5 20 -10 25 -10 6 0 3 5 -5 10 -8 5 -19 10 -25 10 -5
0 -3 -5 5 -10z"/>
<path d="M6900 2496 c0 -2 8 -10 18 -17 15 -13 16 -12 3 4 -13 16 -21 21 -21
13z"/>
</g>
</svg>
